# This file uses centimeters as units for non-parametric coordinates.

mtllib Inside_Corner_LP.mtl
g default
v 2.000000 0.000000 -1.000000
v 2.500000 0.000000 0.000000
v 3.000000 0.000000 0.000183
v 2.000057 1.000000 -0.999026
v 3.000000 0.612139 0.000000
v 2.000000 1.000000 -3.000000
v 2.500000 1.000000 -3.000000
v 3.000000 0.612139 -3.000000
v 2.000000 0.000000 -3.000000
v 2.500000 0.000000 -3.000000
v 3.000000 0.000000 -3.000000
v 2.499986 1.000000 -0.496510
v 0.000000 0.000000 -1.000000
v 0.000000 0.000000 -0.500000
v 0.000000 0.000000 0.000000
v 0.000000 1.000000 -1.000000
v 0.000000 1.000000 -0.500000
v 0.000000 0.612139 0.000000
v 3.000000 0.000000 -0.500000
vt 0.837683 0.501822
vt 0.916331 0.501966
vt 0.680530 0.423114
vt 0.994980 0.502111
vt 0.502208 0.496776
vt 0.166161 0.018786
vt 0.061859 0.020710
vt 0.503076 0.024885
vt 0.917199 0.030076
vt 0.838551 0.029931
vt 0.406780 0.029137
vt 0.274315 0.225601
vt 0.995848 0.030220
vt 0.405912 0.501027
vt 0.272122 0.097768
vt 0.681254 0.029642
vt 0.065708 0.229316
vt 0.170010 0.227391
vt 0.602605 0.029497
vt 0.601880 0.423837
vt 0.067864 0.242639
vt 0.172159 0.240327
vt 0.176784 0.448916
vt 0.072489 0.451229
vt 0.276451 0.237879
vt 0.279450 0.365696
vt 0.680386 0.501532
vt 0.601737 0.501388
vt 0.602461 0.108150
vt 0.681109 0.108277
vt 0.502208 0.496776
vt 0.503076 0.024885
vt 0.838551 0.029931
vt 0.917199 0.030076
vt 0.916331 0.501966
vt 0.837683 0.501822
vt 0.995848 0.030220
vt 0.994980 0.502111
vt 0.405912 0.501027
vt 0.406780 0.029137
vn 0.000000 0.000000 -1.000000
vn 0.000000 0.000000 -1.000000
vn 0.000000 0.000000 -1.000000
vn 0.000000 0.000000 -1.000000
vn 0.000000 0.000000 -1.000000
vn 0.000000 0.000000 -1.000000
vn 0.000000 -1.000000 0.000000
vn 0.000000 -1.000000 0.000000
vn 0.000000 -1.000000 0.000000
vn 0.000000 -1.000000 0.000000
vn 0.000000 -1.000000 0.000000
vn 0.000000 -1.000000 0.000000
vn 1.000000 -0.000000 -0.000000
vn 1.000000 -0.000000 -0.000000
vn 1.000000 -0.000000 -0.000000
vn 1.000000 -0.000000 -0.000000
vn -1.000000 0.000028 0.000014
vn -1.000000 0.000028 0.000014
vn -1.000000 0.000028 0.000014
vn -1.000000 0.000028 0.000014
vn 0.516356 0.856374 0.000001
vn 0.612922 0.790144 0.000002
vn 0.612922 0.790144 0.000002
vn 0.392379 0.919804 0.000001
vn 0.000000 1.000000 0.000000
vn 0.000000 1.000000 0.000000
vn -1.000000 0.000000 0.000000
vn -1.000000 0.000000 0.000000
vn -1.000000 0.000000 0.000000
vn -1.000000 0.000000 0.000000
vn -1.000000 0.000000 0.000000
vn -1.000000 0.000000 0.000000
vn 0.000000 1.000000 0.000000
vn -0.000249 0.919719 0.392576
vn -0.000328 0.855876 0.517180
vn 0.000000 1.000000 0.000000
vn -0.000390 0.789005 0.614387
vn -0.000390 0.789005 0.614387
vn 0.000000 -1.000000 0.000000
vn 0.000000 -1.000000 0.000000
vn 0.000000 -1.000000 0.000000
vn 0.000000 -1.000000 0.000000
vn 0.000000 -1.000000 0.000000
vn 0.000000 -1.000000 0.000000
vn -0.000030 0.000149 1.000000
vn -0.000030 0.000149 1.000000
vn -0.000030 0.000149 1.000000
vn -0.000030 0.000149 1.000000
vn 0.000244 0.000487 -1.000000
vn 0.000244 0.000487 -1.000000
vn 0.000244 0.000487 -1.000000
vn 0.000244 0.000487 -1.000000
s 1
g Inside_Corner_LP
usemtl initialShadingGroup
f 6/7/1 7/6/2 10/18/3 9/17/4
f 7/6/2 8/15/5 11/12/6 10/18/3
s 2
f 9/10/7 10/9/8 2/2/9 1/1/10
f 10/9/8 11/13/11 3/4/12 2/2/9
s off
f 3/14/13 11/11/14 8/8/15 5/5/16
f 9/10/17 1/1/18 4/3/19 6/16/20
s 3
f 12/20/21 5/5/22 8/8/23 7/19/24
f 4/3/25 12/20/21 7/19/24 6/16/26
s 4
f 13/21/27 14/22/28 17/23/29 16/24/30
f 14/22/28 15/25/31 18/26/32 17/23/29
s 5
f 16/27/33 17/28/34 12/29/35 4/30/36
f 17/28/34 18/31/37 5/32/38 12/29/35
s 6
f 1/33/39 19/34/40 14/35/41 13/36/42
f 19/34/40 3/37/43 15/38/44 14/35/41
s off
f 15/39/45 3/40/46 5/32/47 18/31/48
f 1/33/49 13/36/50 16/27/51 4/30/52
